<svg width="16" height="16" viewBox="0 0 16 16" fill="none" xmlns="http://www.w3.org/2000/svg">
<path fill-rule="evenodd" clip-rule="evenodd" d="M9.19855 8.3736L9.19646 8.37164C9.13989 8.31887 9.09749 8.25844 9.06943 8.19508C9.04142 8.13184 9.02766 8.06568 9.02766 8.00001C9.02766 7.93435 9.04142 7.86819 9.06943 7.80494C9.09747 7.74162 9.13985 7.68123 9.19636 7.62847L13.1663 3.89406L13.1738 3.88683C13.2902 3.77422 13.4582 3.70249 13.6432 3.70008C13.8281 3.69766 13.9989 3.765 14.1193 3.87524C14.2385 3.98428 14.2976 4.12382 14.2997 4.25986C14.3016 4.39319 14.2489 4.53075 14.1381 4.64106L14.1353 4.64385L10.4896 8.00001L14.1382 11.3589C14.1922 11.4127 14.2327 11.4736 14.2595 11.5371C14.2874 11.603 14.3007 11.6719 14.2997 11.7402C14.2986 11.8085 14.2834 11.8772 14.2534 11.9427C14.2234 12.0083 14.1786 12.0706 14.1193 12.1248C14.06 12.179 13.9877 12.2238 13.9054 12.2546C13.8231 12.2854 13.7339 12.3011 13.6432 12.3C13.5525 12.2988 13.4639 12.2808 13.3828 12.2479C13.3019 12.2152 13.2315 12.1688 13.1743 12.1136L9.19855 8.3736ZM5.47171 10.1495H5.519L3.22408 8.00001L6.80609 4.64506L6.80794 4.64328C6.92019 4.5326 6.97369 4.3941 6.9717 4.25986C6.96969 4.12382 6.91057 3.98428 6.7914 3.87524C6.67091 3.765 6.50019 3.69766 6.31521 3.70008C6.13025 3.70249 5.96226 3.77422 5.84583 3.88683L5.83886 3.89359L5.83785 3.89454L1.86852 7.62838C1.81198 7.68114 1.76952 7.74161 1.74148 7.80494C1.71347 7.86819 1.69971 7.93435 1.69971 8.00001C1.69971 8.06567 1.71347 8.13183 1.74148 8.19508C1.76954 8.25844 1.81194 8.31887 1.86851 8.37164L1.8706 8.3736L5.8388 12.1065C5.95373 12.2146 6.11832 12.2823 6.29832 12.2823C6.47832 12.2823 6.6429 12.2146 6.75783 12.1065C6.87145 11.9996 6.92647 11.8642 6.92647 11.7329C6.92647 11.6016 6.87145 11.4662 6.75783 11.3593L5.47171 10.1495Z" fill="#ECE2FD"/>
</svg>
