<svg width="10" height="16" viewBox="0 0 10 16" fill="none" xmlns="http://www.w3.org/2000/svg">
<path d="M5.63353 15V13.2H6.66686C7.50045 13.2 8.29833 12.882 8.88538 12.3185C9.47215 11.7552 9.8002 10.993 9.8002 10.2C9.8002 9.40705 9.47215 8.64484 8.88538 8.08154C8.29833 7.51797 7.50045 7.2 6.66686 7.2H3.33353C2.84103 7.2 2.36714 7.01225 2.01651 6.67565C1.66559 6.33877 1.46686 5.88008 1.46686 5.4C1.46686 4.91992 1.66559 4.46123 2.01651 4.12435C2.36714 3.78774 2.84103 3.6 3.33353 3.6H7.5002C7.77169 3.6 8.03361 3.70346 8.22796 3.89004C8.4226 4.07689 8.53353 4.3321 8.53353 4.6C8.53353 4.75641 8.59817 4.90818 8.71611 5.02141C8.8343 5.13487 8.9963 5.2 9.16686 5.2C9.33743 5.2 9.49942 5.13487 9.61761 5.02141C9.73556 4.90818 9.8002 4.75641 9.8002 4.6C9.8002 4.01923 9.55995 3.46049 9.12946 3.04722C8.69869 2.63369 8.11277 2.4 7.5002 2.4H5.63353V0.6C5.63353 0.443591 5.56889 0.29182 5.45094 0.178592C5.33275 0.0651278 5.17076 0 5.0002 0C4.82963 0 4.66764 0.0651278 4.54945 0.178592C4.4315 0.29182 4.36686 0.443591 4.36686 0.6V2.4H3.33353C2.49994 2.4 1.70206 2.71797 1.11501 3.28154C0.528241 3.84484 0.200195 4.60705 0.200195 5.4C0.200195 6.19295 0.528241 6.95516 1.11501 7.51846C1.70206 8.08203 2.49994 8.4 3.33353 8.4H6.66686C7.15936 8.4 7.63325 8.58774 7.98388 8.92435C8.3348 9.26123 8.53353 9.71992 8.53353 10.2C8.53353 10.6801 8.3348 11.1388 7.98388 11.4756C7.63325 11.8123 7.15936 12 6.66686 12H2.5002C2.2287 12 1.96678 11.8965 1.77243 11.71C1.57779 11.5231 1.46686 11.2679 1.46686 11C1.46686 10.8436 1.40222 10.6918 1.28428 10.5786C1.16609 10.4651 1.00409 10.4 0.833529 10.4C0.662965 10.4 0.500971 10.4651 0.38278 10.5786C0.264833 10.6918 0.200195 10.8436 0.200195 11C0.200195 11.5808 0.440443 12.1395 0.870935 12.5528C1.3017 12.9663 1.88762 13.2 2.5002 13.2H4.36686V15C4.36686 15.1564 4.4315 15.3082 4.54945 15.4214C4.66764 15.5349 4.82963 15.6 5.0002 15.6C5.17076 15.6 5.33275 15.5349 5.45094 15.4214C5.56889 15.3082 5.63353 15.1564 5.63353 15Z" fill="#F3ECFE"/>
</svg>
