<svg width="14" height="14" viewBox="0 0 14 14" fill="none" xmlns="http://www.w3.org/2000/svg">
<path fill-rule="evenodd" clip-rule="evenodd" d="M6.9999 6.00054L11.8934 1.10702C12.1694 0.831025 12.6169 0.831024 12.8929 1.10702C13.1689 1.38302 13.1689 1.83051 12.8929 2.10651L7.99939 7.00002L12.8929 11.8935C13.1689 12.1695 13.1689 12.617 12.8929 12.893C12.6169 13.169 12.1694 13.169 11.8934 12.893L6.9999 7.99951L2.10639 12.893C1.83039 13.169 1.3829 13.169 1.1069 12.893C0.830902 12.617 0.830903 12.1695 1.1069 11.8935L6.00042 7.00002L1.1069 2.10651C0.830902 1.83051 0.830902 1.38302 1.1069 1.10702C1.3829 0.831025 1.83039 0.831025 2.10639 1.10702L6.9999 6.00054Z" fill="#333333"/>
</svg>
