<svg width="24" height="24" viewBox="0 0 24 24" fill="none" xmlns="http://www.w3.org/2000/svg">
<path fill-rule="evenodd" clip-rule="evenodd" d="M9.71077 4.79836C10.1102 4.41615 10.6538 4.19995 11.2224 4.19995H12.778C13.3465 4.19995 13.8902 4.41615 14.2896 4.79836C14.6888 5.18029 14.9113 5.69636 14.9113 6.23251V7.1767H18.2224C18.3784 7.1767 18.5264 7.23608 18.6341 7.33917C18.7416 7.44198 18.8002 7.57948 18.8002 7.72088C18.8002 7.86228 18.7416 7.99978 18.6341 8.10259C18.5264 8.20568 18.3784 8.26507 18.2224 8.26507H17.2446V17.7674C17.2446 18.3035 17.0221 18.8196 16.623 19.2015C16.2235 19.5838 15.6799 19.8 15.1113 19.8H8.88908C8.32051 19.8 7.7769 19.5838 7.37743 19.2015C6.97826 18.8196 6.75575 18.3035 6.75575 17.7674V8.26507H5.77797C5.62195 8.26507 5.47401 8.20568 5.36627 8.10259C5.25881 7.99978 5.2002 7.86228 5.2002 7.72088C5.2002 7.57948 5.25881 7.44198 5.36627 7.33917C5.47401 7.23608 5.62195 7.1767 5.77797 7.1767H9.08908V6.23251C9.08908 5.69636 9.3116 5.18029 9.71077 4.79836ZM11.2224 5.28832C10.9659 5.28832 10.7182 5.38575 10.5342 5.56178C10.3499 5.73811 10.2446 5.97918 10.2446 6.23251V7.1767H13.7558V6.23251C13.7558 5.97918 13.6505 5.73811 13.4662 5.56178C13.2822 5.38575 13.0345 5.28832 12.778 5.28832H11.2224ZM16.0891 8.26507H7.91131V17.7674C7.91131 18.0207 8.01656 18.2618 8.20085 18.4381C8.38482 18.6142 8.63254 18.7116 8.88908 18.7116H15.1113C15.3679 18.7116 15.6156 18.6142 15.7995 18.4381C15.9838 18.2618 16.0891 18.0207 16.0891 17.7674V8.26507Z" fill="#333333"/>
<path d="M10.2168 11.3333C10.2168 11.0848 10.4183 10.8833 10.6668 10.8833C10.9153 10.8833 11.1168 11.0848 11.1168 11.3333V15.3333C11.1168 15.5818 10.9153 15.7833 10.6668 15.7833C10.4183 15.7833 10.2168 15.5818 10.2168 15.3333V11.3333Z" fill="#333333"/>
<path d="M12.8835 11.3333C12.8835 11.0848 13.0849 10.8833 13.3335 10.8833C13.582 10.8833 13.7835 11.0848 13.7835 11.3333V15.3333C13.7835 15.5818 13.582 15.7833 13.3335 15.7833C13.0849 15.7833 12.8835 15.5818 12.8835 15.3333V11.3333Z" fill="#333333"/>
</svg>
