<svg width="24" height="24" viewBox="0 0 24 24" fill="none" xmlns="http://www.w3.org/2000/svg">
<path d="M16.8915 10.781C16.8573 10.8503 16.8094 10.911 16.7516 10.9605L12.4237 15.2884C12.3177 15.392 12.1754 15.45 12.0271 15.45C11.8788 15.45 11.736 15.3914 11.6301 15.2879L11.6293 15.2871L7.31217 10.9692L7.30573 10.9638C7.24601 10.9134 7.19736 10.8511 7.16283 10.781C7.1283 10.7108 7.10864 10.6343 7.10508 10.5562C7.10152 10.4781 7.11414 10.4001 7.14215 10.3271C7.17016 10.2541 7.21295 10.1877 7.26783 10.1321C7.32272 10.0764 7.38852 10.0327 7.46111 10.0036C7.53369 9.97457 7.6115 9.96085 7.68964 9.9633C7.76778 9.96575 7.84457 9.98432 7.91519 10.0179C7.98505 10.051 8.04679 10.0982 8.0974 10.1557L11.4598 13.5244L11.4598 5.51585C11.4598 5.36537 11.5196 5.22106 11.626 5.11466C11.7324 5.00826 11.8767 4.94849 12.0271 4.94849C12.1776 4.94849 12.3219 5.00826 12.4283 5.11466C12.5347 5.22106 12.5945 5.36537 12.5945 5.51585L12.5945 13.5181L15.9497 10.1634L15.9542 10.1582C16.0055 10.0992 16.0685 10.0514 16.1391 10.0179C16.2097 9.98433 16.2865 9.96575 16.3646 9.9633C16.4428 9.96085 16.5206 9.97458 16.5932 10.0036C16.6658 10.0327 16.7316 10.0764 16.7865 10.1321C16.8413 10.1877 16.8841 10.2541 16.9121 10.3271C16.9401 10.4001 16.9528 10.4781 16.9492 10.5562C16.9456 10.6343 16.926 10.7108 16.8915 10.781Z" fill="#333333"/>
<path d="M16.1417 18.1003L7.91264 18.1003C7.5652 18.1003 7.28354 17.8186 7.28354 17.4712C7.28354 17.1237 7.5652 16.8421 7.91264 16.8421L16.1417 16.8421C16.4891 16.8421 16.7708 17.1237 16.7708 17.4712C16.7708 17.8186 16.4891 18.1003 16.1417 18.1003Z" fill="#333333"/>
</svg>
