<svg width="24" height="24" viewBox="0 0 24 24" fill="none" xmlns="http://www.w3.org/2000/svg">
<path fill-rule="evenodd" clip-rule="evenodd" d="M12.661 6.66102V11.339H17.339C17.5143 11.339 17.6824 11.4086 17.8064 11.5326C17.9304 11.6566 18 11.8247 18 12C18 12.1753 17.9304 12.3434 17.8064 12.4674C17.6824 12.5914 17.5143 12.661 17.339 12.661H12.661V17.339C12.661 17.5143 12.5914 17.6824 12.4674 17.8064C12.3434 17.9304 12.1753 18 12 18C11.8247 18 11.6566 17.9304 11.5326 17.8064C11.4086 17.6824 11.339 17.5143 11.339 17.339V12.661H6.66102C6.4857 12.661 6.31757 12.5914 6.19361 12.4674C6.06964 12.3434 6 12.1753 6 12C6 11.8247 6.06964 11.6566 6.19361 11.5326C6.31757 11.4086 6.4857 11.339 6.66102 11.339H11.339V6.66102C11.339 6.4857 11.4086 6.31757 11.5326 6.19361C11.6566 6.06964 11.8247 6 12 6C12.1753 6 12.3434 6.06964 12.4674 6.19361C12.5914 6.31757 12.661 6.4857 12.661 6.66102Z" fill="#333333"/>
</svg>
