<svg width="10" height="15" viewBox="0 0 10 15" fill="none" xmlns="http://www.w3.org/2000/svg">
<path fill-rule="evenodd" clip-rule="evenodd" d="M4.43405 10.5568C4.78241 10.3477 5.21759 10.3477 5.56595 10.5568L8.9 12.5572V2C8.9 1.50294 8.49706 1.1 8 1.1H2C1.50294 1.1 1.1 1.50294 1.1 2V12.5572L4.43405 10.5568ZM0.454349 14.2274C0.254392 14.3474 0 14.2033 0 13.9701V2C0 0.895431 0.895431 0 2 0H8C9.10457 0 10 0.895431 10 2V13.9701C10 14.2033 9.74561 14.3474 9.54565 14.2274L5 11.5L0.454349 14.2274Z" fill="#F3ECFE"/>
</svg>
