<svg width="14" height="14" viewBox="0 0 14 14" fill="none" xmlns="http://www.w3.org/2000/svg">
<path fill-rule="evenodd" clip-rule="evenodd" d="M9.52921 7.6039L9.50012 7.50003L9.4894 7.33192C10.0867 6.83665 10.5234 6.17384 10.7423 5.42782C10.9706 4.64979 10.9507 3.81993 10.6855 3.05371C10.4202 2.2875 9.92266 1.62301 9.26214 1.15272C8.60162 0.682417 7.81094 0.429688 7.0001 0.429688C6.18925 0.429688 5.39857 0.682417 4.73805 1.15272C4.07753 1.62301 3.58002 2.2875 3.31473 3.05371C3.04945 3.81993 3.02958 4.64979 3.25789 5.42782C3.4862 6.20586 3.95134 6.89339 4.5886 7.39476L4.72464 7.5018L4.56395 7.56618C3.4608 8.00814 2.49827 8.74119 1.77896 9.68716C1.05969 10.6331 0.610568 11.7565 0.479496 12.9376C0.471301 13.0121 0.47786 13.0875 0.498797 13.1595C0.519734 13.2314 0.55464 13.2985 0.601521 13.357C0.696202 13.4751 0.833914 13.5507 0.984363 13.5673C1.13481 13.5838 1.28567 13.5399 1.40376 13.4453C1.52178 13.3506 1.5974 13.213 1.614 13.0626C1.76314 11.735 2.39625 10.5084 3.39226 9.61799C4.38828 8.72759 5.67744 8.23537 7.01343 8.23537C8.34942 8.23537 9.63858 8.72759 10.6346 9.61799C11.6306 10.5084 12.2637 11.7346 12.4128 13.0622C12.4282 13.2013 12.4947 13.3302 12.5993 13.4233C12.704 13.5165 12.84 13.5675 12.9801 13.5667L13.0409 13.5676L13.0546 13.5658C13.1982 13.546 13.329 13.4718 13.4197 13.3584C13.513 13.2417 13.5565 13.0925 13.5407 12.9439C13.4089 11.7596 12.9574 10.6335 12.2345 9.68615C11.5317 8.76524 10.5982 8.04711 9.52921 7.6039ZM7.0001 7.10002C6.4529 7.10002 5.91799 6.93776 5.46302 6.63375C5.00804 6.32975 4.65343 5.89765 4.44403 5.39211C4.23463 4.88657 4.17984 4.33028 4.28659 3.7936C4.39334 3.25692 4.65684 2.76395 5.04377 2.37702C5.43069 1.9901 5.92367 1.7266 6.46035 1.61985C6.99703 1.51309 7.55331 1.56788 8.05885 1.77728C8.5644 1.98669 8.99649 2.3413 9.3005 2.79627C9.6045 3.25125 9.76676 3.78616 9.76676 4.33335C9.76676 5.06712 9.47528 5.77083 8.95643 6.28968C8.43758 6.80853 7.73386 7.10002 7.0001 7.10002Z" fill="#F3ECFE"/>
</svg>
